<?xml version='1.0' encoding='utf-8'?>
<svg xmlns="http://www.w3.org/2000/svg" version="1.1" id="Layer_1" x="0px" y="0px" viewBox="0 0 1920 1080" style="enable-background:new 0 0 1920 1080;"> <g> <rect y="745.7" width="1920" height="5.1"/> <rect y="735.4" width="1920" height="5.1"/> <rect y="725.1" width="1920" height="5.1"/> <rect y="714.8" width="1920" height="5.1"/> <rect y="704.6" width="1920" height="5.1"/> <rect y="694.3" width="1920" height="5.1"/> <rect y="684" width="1920" height="5.1"/> <rect y="673.7" width="1920" height="5.1"/> <rect y="663.4" width="1920" height="5.1"/> <rect y="653.1" width="1920" height="5.1"/> <rect y="642.8" width="1920" height="5.1"/> <rect y="632.6" width="1920" height="5.1"/> <rect y="622.3" width="1920" height="5.1"/> <rect y="612" width="1920" height="5.1"/> <rect y="601.7" width="1920" height="5.1"/> <rect y="591.4" width="1920" height="5.1"/> <rect y="581.1" width="1920" height="5.1"/> <rect y="570.8" width="1920" height="5.1"/> <rect y="560.6" width="1920" height="5.1"/> <rect y="550.3" width="1920" height="5.1"/> <rect y="540" width="1920" height="5.1"/> <rect y="529.7" width="1920" height="5.1"/> <rect y="519.4" width="1920" height="5.1"/> <rect y="509.1" width="1920" height="5.1"/> <rect y="498.8" width="1920" height="5.1"/> <rect y="488.6" width="1920" height="5.1"/> <rect y="478.3" width="1920" height="5.1"/> <rect y="468" width="1920" height="5.1"/> <rect y="457.7" width="1920" height="5.1"/> <rect y="447.4" width="1920" height="5.1"/> <rect y="437.1" width="1920" height="5.1"/> <rect y="426.8" width="1920" height="5.1"/> <rect y="1074.9" width="1920" height="5.1"/> <rect y="1064.6" width="1920" height="5.1"/> <rect y="1054.3" width="1920" height="5.1"/> <rect y="1044" width="1920" height="5.1"/> <rect y="1033.7" width="1920" height="5.1"/> <rect y="1023.4" width="1920" height="5.1"/> <rect y="1013.1" width="1920" height="5.1"/> <rect y="1002.9" width="1920" height="5.1"/> <rect y="992.6" width="1920" height="5.1"/> <rect y="982.3" width="1920" height="5.1"/> <rect y="972" width="1920" height="5.1"/> <rect y="961.7" width="1920" height="5.1"/> <rect y="951.4" width="1920" height="5.1"/> <rect y="941.1" width="1920" height="5.1"/> <rect y="930.9" width="1920" height="5.1"/> <rect y="920.6" width="1920" height="5.1"/> <rect y="910.3" width="1920" height="5.1"/> <rect y="900" width="1920" height="5.1"/> <rect y="889.7" width="1920" height="5.1"/> <rect y="879.4" width="1920" height="5.1"/> <rect y="869.1" width="1920" height="5.1"/> <rect y="858.9" width="1920" height="5.1"/> <rect y="848.6" width="1920" height="5.1"/> <rect y="838.3" width="1920" height="5.1"/> <rect y="828" width="1920" height="5.1"/> <rect y="817.7" width="1920" height="5.1"/> <rect y="807.4" width="1920" height="5.1"/> <rect y="797.1" width="1920" height="5.1"/> <rect y="786.9" width="1920" height="5.1"/> <rect y="776.6" width="1920" height="5.1"/> <rect y="766.3" width="1920" height="5.1"/> <rect y="756" width="1920" height="5.1"/> </g> <rect y="87.5" width="1920" height="5.1"/> <rect y="77.2" width="1920" height="5.1"/> <rect y="66.9" width="1920" height="5.1"/> <rect y="56.6" width="1920" height="5.1"/> <rect y="46.3" width="1920" height="5.1"/> <rect y="36" width="1920" height="5.1"/> <rect y="25.7" width="1920" height="5.1"/> <rect y="15.5" width="1920" height="5.1"/> <rect y="5.2" width="1920" height="5.1"/> <rect y="416.6" width="1920" height="5.1"/> <rect y="406.3" width="1920" height="5.1"/> <rect y="396" width="1920" height="5.1"/> <rect y="385.8" width="1920" height="5.1"/> <rect y="375.5" width="1920" height="5.1"/> <rect y="365.2" width="1920" height="5.1"/> <rect y="354.9" width="1920" height="5.1"/> <rect y="344.6" width="1920" height="5.1"/> <rect y="334.3" width="1920" height="5.1"/> <rect y="324" width="1920" height="5.1"/> <rect y="313.8" width="1920" height="5.1"/> <rect y="303.5" width="1920" height="5.1"/> <rect y="293.2" width="1920" height="5.1"/> <rect y="282.9" width="1920" height="5.1"/> <rect y="272.6" width="1920" height="5.1"/> <rect y="262.3" width="1920" height="5.1"/> <rect y="252" width="1920" height="5.1"/> <rect y="241.8" width="1920" height="5.1"/> <rect y="231.5" width="1920" height="5.1"/> <rect y="221.2" width="1920" height="5.1"/> <rect y="210.9" width="1920" height="5.1"/> <rect y="200.6" width="1920" height="5.1"/> <rect y="190.3" width="1920" height="5.1"/> <rect y="180" width="1920" height="5.1"/> <rect y="169.7" width="1920" height="5.1"/> <rect y="159.5" width="1920" height="5.1"/> <rect y="149.2" width="1920" height="5.1"/> <rect y="138.9" width="1920" height="5.1"/> <rect y="128.6" width="1920" height="5.1"/> <rect y="118.3" width="1920" height="5.1"/> <rect y="108" width="1920" height="5.1"/> <rect y="97.7" width="1920" height="5.1"/> </svg>